<svg xmlns="http://www.w3.org/2000/svg" width="24" height="24" viewBox="0 0 24 24">
    <g fill="none" fill-rule="evenodd">
        <g fill-rule="nonzero">
            <g>
                <g>
                    <g>
                        <path fill="#FFF" stroke="#E1E1E2" stroke-width="1.5" d="M12 .75c3.107 0 5.919 1.26 7.955 3.295C21.99 6.081 23.25 8.893 23.25 12s-1.26 5.919-3.295 7.955C17.919 21.99 15.107 23.25 12 23.25s-5.919-1.26-7.955-3.295C2.01 17.919.75 15.107.75 12s1.26-5.919 3.295-7.955C6.081 2.01 8.893.75 12 .75z" transform="translate(-1464.000000, -414.000000) translate(264.000000, 323.000000) translate(964.000000, 24.000000) translate(236.000000, 67.000000)"/>
                        <path fill="#E1E1E2" d="M10.613 17.18v-5.494c0-.765.621-1.386 1.387-1.386s1.387.62 1.387 1.386v5.494c0 .766-.621 1.386-1.387 1.386s-1.387-.62-1.387-1.386zM12 8.787c-.674 0-1.282-.406-1.54-1.03-.258-.622-.115-1.339.361-1.816.477-.476 1.194-.619 1.817-.36.623.257 1.029.865 1.029 1.539 0 .92-.747 1.667-1.667 1.667z" transform="translate(-1464.000000, -414.000000) translate(264.000000, 323.000000) translate(964.000000, 24.000000) translate(236.000000, 67.000000)"/>
                    </g>
                </g>
            </g>
        </g>
    </g>
</svg>
