<svg xmlns="http://www.w3.org/2000/svg" width="16" height="16" viewBox="0 0 16 16">
    <g fill="none" fill-opacity=".3" fill-rule="evenodd">
        <g fill="#000" fill-rule="nonzero">
            <g>
                <path d="M1263 4c.265 0 .52.105.707.293.188.187.293.442.293.707v14c0 .265-.105.52-.293.707-.187.188-.442.293-.707.293h-8c-.265 0-.52-.105-.707-.293-.188-.187-.293-.442-.293-.707v-2c0-.552.448-1 1-1s1 .448 1 1v1h6V6h-6v1c0 .552-.448 1-1 1s-1-.448-1-1V5c0-.265.105-.52.293-.707.187-.188.442-.293.707-.293zm-11.707 4.293c.39-.389 1.022-.388 1.412.002.39.39.39 1.021.002 1.412L1251.414 11H1259c.552 0 1 .448 1 1s-.448 1-1 1h-7.586l1.293 1.293c.254.252.353.621.261.967-.092.346-.362.616-.708.708-.346.092-.715-.007-.967-.261l-3-3c-.188-.187-.293-.442-.293-.707 0-.265.105-.52.293-.707z" transform="translate(-1512.000000, -40.000000) translate(264.000000, 36.000000) translate(1256.000010, 11.999999) scale(-1, 1) translate(-1256.000010, -11.999999)"/>
            </g>
        </g>
    </g>
</svg>
