<svg xmlns="http://www.w3.org/2000/svg" xmlns:xlink="http://www.w3.org/1999/xlink" width="164" height="104" viewBox="0 0 164 104">
    <defs>
        <filter id="1nxc8e19va" width="281.8%" height="281.8%" x="-90.9%" y="-45.5%" filterUnits="objectBoundingBox">
            <feOffset dy="20" in="SourceAlpha" result="shadowOffsetOuter1"/>
            <feGaussianBlur in="shadowOffsetOuter1" result="shadowBlurOuter1" stdDeviation="10"/>
            <feComposite in="shadowBlurOuter1" in2="SourceAlpha" operator="out" result="shadowBlurOuter1"/>
            <feColorMatrix in="shadowBlurOuter1" values="0 0 0 0 0 0 0 0 0 0 0 0 0 0 0 0 0 0 0.05 0"/>
        </filter>
        <filter id="hyl3sdm4id" width="281.8%" height="281.8%" x="-90.9%" y="-45.5%" filterUnits="objectBoundingBox">
            <feOffset dy="20" in="SourceAlpha" result="shadowOffsetOuter1"/>
            <feGaussianBlur in="shadowOffsetOuter1" result="shadowBlurOuter1" stdDeviation="10"/>
            <feComposite in="shadowBlurOuter1" in2="SourceAlpha" operator="out" result="shadowBlurOuter1"/>
            <feColorMatrix in="shadowBlurOuter1" values="0 0 0 0 0 0 0 0 0 0 0 0 0 0 0 0 0 0 0.05 0"/>
        </filter>
        <filter id="qppmbqnl9f" width="225%" height="225%" x="-62.5%" y="-31.2%" filterUnits="objectBoundingBox">
            <feOffset dy="20" in="SourceAlpha" result="shadowOffsetOuter1"/>
            <feGaussianBlur in="shadowOffsetOuter1" result="shadowBlurOuter1" stdDeviation="10"/>
            <feComposite in="shadowBlurOuter1" in2="SourceAlpha" operator="out" result="shadowBlurOuter1"/>
            <feColorMatrix in="shadowBlurOuter1" values="0 0 0 0 0 0 0 0 0 0 0 0 0 0 0 0 0 0 0.05 0"/>
        </filter>
        <path id="46tof919gb" d="M43.336 38.992c.597-.607.813-1.515.56-2.344-.255-.83-.936-1.437-1.759-1.568l-11.394-1.743c-.718-.101-1.34-.572-1.655-1.254l-5.121-10.797C23.595 20.5 22.828 20 21.988 20c-.84 0-1.607.499-1.979 1.286l-5.097 10.797c-.316.682-.937 1.153-1.655 1.254L1.863 35.08c-.823.131-1.504.739-1.758 1.568-.254.829-.038 1.737.559 2.344l8.251 8.414c.517.528.755 1.287.636 2.032L7.596 61.313c-.143.862.195 1.735.873 2.25.678.514 1.577.58 2.317.17l10.207-5.605c.642-.35 1.408-.35 2.05 0l10.195 5.605c.736.382 1.615.301 2.277-.208.662-.51.996-1.364.865-2.212l-1.955-11.875c-.119-.745.119-1.504.636-2.032l8.275-8.414z"/>
        <path id="2fix73adae" d="M123.336 38.992c.597-.607.813-1.515.56-2.344-.255-.83-.936-1.437-1.759-1.568l-11.394-1.743c-.718-.101-1.34-.572-1.655-1.254l-5.121-10.797c-.372-.787-1.139-1.286-1.979-1.286-.84 0-1.607.499-1.979 1.286l-5.097 10.797c-.316.682-.937 1.153-1.655 1.254L81.863 35.08c-.823.131-1.504.739-1.758 1.568-.254.829-.038 1.737.559 2.344l8.251 8.414c.517.528.755 1.287.636 2.032l-1.955 11.875c-.143.862.195 1.735.873 2.25.678.514 1.577.58 2.317.17l10.207-5.605c.642-.35 1.408-.35 2.05 0l10.195 5.605c.736.382 1.615.301 2.277-.208.662-.51.996-1.364.865-2.212l-1.955-11.875c-.119-.745.119-1.504.636-2.032l8.275-8.414z"/>
        <path id="3qgq3ckf5g" d="M93.035 27.625c.867-.884 1.182-2.204.813-3.41-.37-1.206-1.36-2.09-2.558-2.28l-16.573-2.536c-1.044-.147-1.948-.832-2.407-1.824L64.861 1.871C64.321.725 63.204 0 61.983 0c-1.222 0-2.338.725-2.879 1.87L51.69 17.576c-.459.992-1.363 1.677-2.407 1.824L32.71 21.934c-1.197.192-2.188 1.075-2.558 2.28-.37 1.207-.054 2.527.813 3.41l12.002 12.24c.753.767 1.098 1.87.925 2.954l-2.844 17.273c-.208 1.255.285 2.525 1.271 3.273.986.748 2.293.844 3.37.247l14.846-8.153c.934-.509 2.048-.509 2.983 0l14.828 8.153c1.071.556 2.35.44 3.312-.302.963-.742 1.448-1.984 1.259-3.218l-2.844-17.273c-.173-1.083.172-2.187.925-2.954l12.037-12.24z"/>
        <linearGradient id="53tycnzgpc" x1="50%" x2="50%" y1="0%" y2="100%">
            <stop offset="0%" stop-color="#FFD500"/>
            <stop offset="100%" stop-color="#FFB500"/>
        </linearGradient>
    </defs>
    <g fill="none" fill-rule="evenodd">
        <g fill-rule="nonzero">
            <g>
                <g>
                    <g transform="translate(-1246 -3008) translate(264 2680) translate(1002 328)">
                        <use fill="#000" filter="url(#1nxc8e19va)" xlink:href="#46tof919gb"/>
                        <path fill="url(#53tycnzgpc)" fill-opacity=".5" fill-rule="evenodd" stroke="#FFF" stroke-linejoin="square" stroke-opacity=".15" d="M21.988 20.5c.322 0 .63.096.893.267.267.174.489.426.634.733h0l5.12 10.793c.388.84 1.156 1.415 2.033 1.538h0l11.39 1.742c.316.051.605.194.839.402.238.213.42.495.52.82.1.327.108.67.031.992-.076.319-.234.617-.468.855h0l-8.276 8.414c-.626.639-.917 1.557-.772 2.463h0l1.954 11.87c.052.335.012.672-.107.975-.117.299-.31.565-.57.765-.253.195-.548.309-.85.336-.3.028-.606-.03-.886-.173h0l-10.19-5.603c-.793-.432-1.737-.432-2.531 0h0l-10.208 5.606c-.283.157-.596.223-.903.2-.308-.022-.61-.134-.87-.33-.264-.202-.462-.473-.58-.778-.12-.308-.159-.651-.102-.993h0l1.956-11.878c.144-.903-.147-1.821-.773-2.46h0L1.02 38.642c-.234-.238-.392-.536-.468-.855-.077-.321-.07-.665.03-.993.1-.324.283-.606.521-.819.234-.208.523-.35.836-.401h0l11.388-1.742c.882-.124 1.65-.7 2.037-1.536h0L20.461 21.5c.145-.307.367-.559.634-.733.263-.17.571-.267.893-.267z"/>
                    </g>
                    <g transform="translate(-1246 -3008) translate(264 2680) translate(1002 328)">
                        <use fill="#000" filter="url(#hyl3sdm4id)" xlink:href="#2fix73adae"/>
                        <path fill="url(#53tycnzgpc)" fill-opacity=".5" fill-rule="evenodd" stroke="#FFF" stroke-linejoin="square" stroke-opacity=".15" d="M101.988 20.5c.322 0 .63.096.893.267.267.174.489.426.634.733h0l5.12 10.793c.388.84 1.156 1.415 2.033 1.538h0l11.39 1.742c.316.051.605.194.839.402.238.213.42.495.52.82.1.327.108.67.031.992-.076.319-.234.617-.468.855h0l-8.276 8.414c-.626.639-.917 1.557-.772 2.463h0l1.954 11.87c.052.335.012.672-.107.975-.117.299-.31.565-.57.765-.253.195-.548.309-.85.336-.3.028-.606-.03-.886-.173h0l-10.19-5.603c-.793-.432-1.737-.432-2.531 0h0l-10.208 5.606c-.283.157-.596.223-.903.2-.308-.022-.61-.134-.87-.33-.264-.202-.462-.473-.58-.778-.12-.308-.159-.651-.102-.993h0l1.956-11.878c.144-.903-.147-1.821-.773-2.46h0l-8.252-8.414c-.234-.238-.392-.536-.468-.855-.077-.321-.07-.665.03-.993.1-.324.283-.606.521-.819.234-.208.523-.35.836-.401h0l11.388-1.742c.882-.124 1.65-.7 2.037-1.536h0l5.097-10.796c.145-.307.367-.559.634-.733.263-.17.571-.267.893-.267z"/>
                    </g>
                    <g transform="translate(-1246 -3008) translate(264 2680) translate(1002 328)">
                        <use fill="#000" filter="url(#qppmbqnl9f)" xlink:href="#3qgq3ckf5g"/>
                        <path fill="url(#53tycnzgpc)" fill-rule="evenodd" stroke="#FFF" stroke-linejoin="square" stroke-opacity=".15" d="M61.983.5c.512 0 1.003.153 1.422.425.424.276.774.673 1.004 1.16h0l7.447 15.7c.532 1.15 1.583 1.939 2.786 2.108h0l16.57 2.535c.502.08.962.307 1.334.64.378.336.666.78.824 1.293.158.517.17 1.058.049 1.564-.12.504-.371.973-.74 1.35h0L80.64 39.513c-.862.878-1.26 2.141-1.061 3.386h0l2.842 17.267c.082.528.019 1.058-.168 1.536-.185.473-.492.895-.901 1.21-.404.31-.874.491-1.356.535-.479.044-.968-.047-1.416-.278h0l-14.824-8.15c-1.085-.592-2.377-.592-3.463 0h0l-14.847 8.154c-.451.25-.95.355-1.44.32-.491-.037-.972-.215-1.386-.529-.419-.317-.732-.746-.919-1.228-.189-.486-.25-1.027-.16-1.565h0l2.844-17.275c.198-1.242-.2-2.505-1.062-3.383h0l-12.002-12.24c-.37-.376-.62-.845-.74-1.35-.121-.505-.11-1.046.048-1.563.158-.512.446-.957.824-1.294.372-.332.832-.559 1.331-.639h0l16.567-2.534c1.21-.17 2.26-.96 2.79-2.106h0l7.414-15.704c.23-.486.58-.883 1.004-1.159.42-.272.91-.425 1.423-.425z"/>
                    </g>
                </g>
            </g>
        </g>
    </g>
</svg>
