<svg xmlns="http://www.w3.org/2000/svg" xmlns:xlink="http://www.w3.org/1999/xlink" width="147" height="134" viewBox="0 0 147 134">
    <defs>
        <filter id="4z9gempuga" width="281.8%" height="281.8%" x="-90.9%" y="-45.5%" filterUnits="objectBoundingBox">
            <feOffset dy="20" in="SourceAlpha" result="shadowOffsetOuter1"/>
            <feGaussianBlur in="shadowOffsetOuter1" result="shadowBlurOuter1" stdDeviation="10"/>
            <feColorMatrix in="shadowBlurOuter1" values="0 0 0 0 0 0 0 0 0 0 0 0 0 0 0 0 0 0 0.05 0"/>
        </filter>
        <filter id="xnnsx4n3ed" width="225%" height="225%" x="-62.5%" y="-31.2%" filterUnits="objectBoundingBox">
            <feOffset dy="20" in="SourceAlpha" result="shadowOffsetOuter1"/>
            <feGaussianBlur in="shadowOffsetOuter1" result="shadowBlurOuter1" stdDeviation="10"/>
            <feColorMatrix in="shadowBlurOuter1" values="0 0 0 0 0 0 0 0 0 0 0 0 0 0 0 0 0 0 0.05 0"/>
        </filter>
        <path id="otiv83yftb" d="M103.336 48.992c.597-.607.813-1.515.56-2.344-.255-.83-.936-1.437-1.759-1.568l-11.394-1.743c-.718-.101-1.34-.572-1.655-1.254l-5.121-10.797C83.595 30.5 82.828 30 81.988 30c-.84 0-1.607.499-1.979 1.286l-5.097 10.797c-.316.682-.937 1.153-1.655 1.254L61.863 45.08c-.823.131-1.504.739-1.758 1.568-.254.829-.038 1.737.559 2.344l8.251 8.414c.517.528.755 1.287.636 2.032l-1.955 11.875c-.143.862.195 1.735.873 2.25.678.514 1.577.58 2.317.17l10.207-5.605c.642-.35 1.408-.35 2.05 0l10.195 5.605c.736.382 1.615.301 2.277-.208.662-.51.996-1.364.865-2.212l-1.955-11.875c-.119-.745.119-1.504.636-2.032l8.275-8.414z"/>
        <path id="1e0gnebsje" d="M73.035 37.625c.867-.884 1.182-2.204.813-3.41-.37-1.206-1.36-2.09-2.558-2.28l-16.573-2.536c-1.044-.147-1.948-.832-2.407-1.824l-7.449-15.704C44.321 10.725 43.204 10 41.983 10c-1.222 0-2.338.725-2.879 1.87L31.69 27.576c-.459.992-1.363 1.677-2.407 1.824L12.71 31.934c-1.197.192-2.188 1.075-2.558 2.28-.37 1.207-.054 2.527.813 3.41l12.002 12.24c.753.767 1.098 1.87.925 2.954l-2.844 17.273c-.208 1.255.285 2.525 1.271 3.273.986.748 2.293.844 3.37.247l14.846-8.153c.934-.509 2.048-.509 2.983 0l14.828 8.153c1.071.556 2.35.44 3.312-.302.963-.742 1.448-1.984 1.259-3.218l-2.844-17.273c-.173-1.083.172-2.187.925-2.954l12.037-12.24z"/>
        <linearGradient id="dhov3vvb7c" x1="50%" x2="50%" y1="0%" y2="100%">
            <stop offset="0%" stop-color="#FFF" stop-opacity=".5"/>
            <stop offset="100%" stop-opacity=".2"/>
        </linearGradient>
    </defs>
    <g fill="none" fill-rule="evenodd">
        <g fill-rule="nonzero">
            <g>
                <g>
                    <g opacity=".5" transform="translate(-826 -2992) translate(264 2680) translate(580 318) rotate(20 82 52)">
                        <use fill="#000" filter="url(#4z9gempuga)" xlink:href="#otiv83yftb"/>
                        <use fill="#E9E9E9" xlink:href="#otiv83yftb"/>
                        <use fill="url(#dhov3vvb7c)" xlink:href="#otiv83yftb"/>
                    </g>
                    <g transform="translate(-826 -2992) translate(264 2680) translate(580 318) rotate(-20 42 42)">
                        <use fill="#000" filter="url(#xnnsx4n3ed)" xlink:href="#1e0gnebsje"/>
                        <use fill="#E9E9E9" xlink:href="#1e0gnebsje"/>
                        <use fill="url(#dhov3vvb7c)" xlink:href="#1e0gnebsje"/>
                    </g>
                </g>
            </g>
        </g>
    </g>
</svg>
