<svg xmlns="http://www.w3.org/2000/svg" xmlns:xlink="http://www.w3.org/1999/xlink" width="682" height="459" viewBox="0 0 682 459">
    <defs>
        <filter id="mywhsh0zja" width="196.9%" height="253.2%" x="-48.5%" y="-44.3%" filterUnits="objectBoundingBox">
            <feOffset dy="40" in="SourceAlpha" result="shadowOffsetOuter1"/>
            <feGaussianBlur in="shadowOffsetOuter1" result="shadowBlurOuter1" stdDeviation="25"/>
            <feColorMatrix in="shadowBlurOuter1" values="0 0 0 0 0 0 0 0 0 0 0 0 0 0 0 0 0 0 0.1 0"/>
        </filter>
        <filter id="uxg5n79ykc" width="196.9%" height="231.4%" x="-48.5%" y="-38.1%" filterUnits="objectBoundingBox">
            <feOffset dy="40" in="SourceAlpha" result="shadowOffsetOuter1"/>
            <feGaussianBlur in="shadowOffsetOuter1" result="shadowBlurOuter1" stdDeviation="25"/>
            <feColorMatrix in="shadowBlurOuter1" values="0 0 0 0 0 0 0 0 0 0 0 0 0 0 0 0 0 0 0.1 0"/>
        </filter>
        <path id="2tzuodeiwb" d="M434.349 146.546c2.86-5.035 6.407-12.11 9.2-20.345 13.966-7.805 23.412-22.732 23.412-39.864 0-25.205-20.444-45.638-45.66-45.638-25.216 0-45.656 20.433-45.656 45.638 0 17.284 9.615 32.325 23.786 40.071-.016 1.737.08 12.415 4.846 20.138H368c-5.523 0-10-4.477-10-10V32.507c0-5.523 4.477-10 10-10h176c5.523 0 10 4.477 10 10v104.039c0 5.523-4.477 10-10 10H434.349z"/>
        <path id="4bu2r37v6d" d="M10 180.557h176c5.523 0 10-4.478 10-10V46.01c0-5.523-4.477-10-10-10H10c-5.523 0-10 4.477-10 10v124.546c0 5.522 4.477 10 10 10z"/>
    </defs>
    <g fill="none" fill-rule="evenodd">
        <g>
            <g>
                <g>
                    <path fill="#000" fill-opacity=".2" d="M481 267.506v10.08h-1.5v-10.08h1.5zm0-20.158v10.08h-1.5v-10.08h1.5zm-329.5-6.09v1.318h-5.628v-1.319h5.628zm-15.69 0v1.318h-10.062v-1.319h10.062zm-20.124 0v1.318h-10.062v-1.319h10.062zm-20.124 0v1.318H85.5v-1.319h10.062zM481 227.185v10.081h-1.5v-10.08h1.5zm-394.188-6.163v10.117H85.5v-10.117h1.312zM481 207.028v10.077h-1.5v-10.077h1.5zM86.812 200.79v10.115H85.5V200.79h1.312zM481 186.867v10.08h-1.5v-10.08h1.5zm-394.188-6.31v10.116H85.5v-10.116h1.312zM481 166.707v10.08h-1.5v-10.08h1.5zm0-20.161v10.08h-1.5v-10.08h1.5zM358 63.203v1.317h-7.335v-1.317H358zm-17.416 0v1.317h-10.082v-1.317h10.082zm-20.16 0v1.317h-10.081v-1.317h10.081zm-20.162 0v1.317h-10.08v-1.317h10.08zm-20.161 0v1.317h-10.08v-1.317h10.08zm-12.828-16.121v10.095h-1.315V47.082h1.315zm0-20.19v10.094h-1.315V26.891h1.315zm-180.458-.996V35.99H85.5V25.896h1.315zM267.273 6.702v10.095h-1.315V6.702h1.315zM86.815 5.706V15.8H85.5V5.706h1.315zM101.278 0v1.317h-10.08V0h10.08zm20.162 0v1.317h-10.08V0h10.08zM141.6 0v1.317h-10.08V0h10.08zm20.161 0v1.317h-10.08V0h10.08zm20.162 0v1.317h-10.08V0h10.08zm20.161 0v1.317h-10.08V0h10.08zm20.161 0v1.317h-10.08V0h10.08zm20.162 0v1.317h-10.08V0h10.08zm20.161 0v1.317h-10.08V0h10.08z" transform="translate(-530 -1981) translate(264 1779) translate(316 202)"/>
                    <path fill="#000" d="M235 148.547l5.354 13.17s2.937 3.1 5.646 3.335l-3.81-14.567-7.19-1.938" transform="translate(-530 -1981) translate(264 1779) translate(316 202)"/>
                    <path fill="#A55C5C" d="M278.453 169.717l.015.038 9.354 26.185-40.637 7.624-4.076-39.387-.002-.008-1.407-9.499c-2.324-.995-4.262-2.006-5.874-3.002-5.519-3.399-7.256-6.7-7.326-9.447l.001-.114c-.06-4.19 3.713-7.094 3.713-7.094l-1.432-25.183 49.888-3.797c.398.955.787 1.903 1.163 2.83l.057.158c1.963 4.875 3.565 9.37 4.834 13.505l.043.13c14.283 46.617-8.314 47.061-8.314 47.061" transform="translate(-530 -1981) translate(264 1779) translate(316 202)"/>
                    <path fill="#000" d="M239.5 115.17l7.06 26.281-5.455-.488s-3.78-6.143-8.748-4.821c-2.128.566-4.633 4.83-3.82 7.903 0 0-24.487-30.041-7.593-34.535 0 0 20.18-47.752 37.822-21.717 0 0 18.744-13.463 17.297 4.935 0 0 14.838-8.185 12.732 15.686l-1.564 15.427-5.291-14.712s-11.23 7.274-31.243 4.121c0 0 5.57 4.876 14.317 5.728 0 0-16.698 1.263-25.513-3.809M282 179.046c-18.498.489-26.255-16.922-26.5-17.495 4.57 4.704 15.976 6.928 23.142 8.013l3.358 9.482" transform="translate(-530 -1981) translate(264 1779) translate(316 202)"/>
                    <path fill="#FFAA3F" d="M392 205.275v52.058l-20.847-3.437-26.95-4.44 16.445 138.887-24.487 1.806-114.734 8.476-3.925-90.074-.022-.476-46.041 45.494-.439-56.43 19.732-71.303 54.373-34.558c26.31 19.246 38.148-10.061 38.148-10.061l42.285-1.15c3.918-.106 7.82.62 11.439 2.138l42.835 17.962 2.044.857L392 205.275" transform="translate(-530 -1981) translate(264 1779) translate(316 202)"/>
                    <path fill="#000" d="M186.644 338.854l-14.71 14.757-.434-56.604 14.84-54.431c8.879 26.444 6.002 73.029.304 96.278" transform="translate(-530 -1981) translate(264 1779) translate(316 202)"/>
                    <path fill="#A55C5C" d="M182.269 345.66s-18.321 26.891-29.847 0c-3.466-8.094-3.32-23.497 9.616-56.435 1.04-2.64 2.158-5.4 3.364-8.273l3.374-11.368 18.36 2.188s1.194 13.313 1.349 28.904c.164 17.115-.924 36.973-6.216 44.985" transform="translate(-530 -1981) translate(264 1779) translate(316 202)"/>
                    <path fill="#BAD0F7" d="M166.15 222.653l87.47-14.503c3.355-.558 6.528 1.703 7.086 5.05l10.21 61.24c.558 3.346-1.71 6.511-5.066 7.066l-87.47 14.503c-3.355.555-6.527-1.707-7.086-5.05l-10.21-61.24c-.557-3.347 1.71-6.511 5.066-7.066" transform="translate(-530 -1981) translate(264 1779) translate(316 202)"/>
                    <path fill="#000" d="M392 205.33v52.25l-20.73-3.449c-3.69-5.772-3.254-15.432-3.254-15.432.833-10.067 7.243-24.148 13.897-37.636L392 205.329" transform="translate(-530 -1981) translate(264 1779) translate(316 202)"/>
                    <path fill="#A55C5C" d="M171.893 292.091l-.88-4.4s16.286-11.44 14.965-19.357c0 0-1.32-2.639-6.162 2.198 0 0 8.363-10.117 7.043-13.638 0 0-1.761-3.52-7.923 1.76 0 0 4.421-9.017 2.8-14.37-.278-.918-1.436-1.223-2.161-.59-1.726 1.501-5.392 4.913-12.523 12.32 0 0 7.042-18.037 2.2-22.438 0 0-1.76-.44-7.042 9.238 0 0-7.703 13.859-6.602 17.601 0 0 1.32 2.199 2.64 2.199 0 0-2.64 6.16 3.082 10.12 0 0-3.082 4.4.88 9.677 0 0 1.76 9.68 9.683 9.68M406.15 149.067s-28.36 64.145-30.118 73.338c0 0-10.553 26.271 11.431 34.151 8.417 3.019 23.467.579 29.898-24.08 4.981-19.098 12.093-77.717 12.093-77.717s9.042-12.333 14.661-29.406c1.053-3.196-.105-6.698-2.845-8.666-5.607-4.028-14.838-9.352-17.532-3.086 0 0 3.955-36.34-3.958-32.838 0 0-3.958-1.314-4.837 15.325l-4.837 26.27s-7.035-21.454-14.508-18.827l3.955 22.768s-.44 14.448 6.598 22.768" transform="translate(-530 -1981) translate(264 1779) translate(316 202)"/>
                    <path fill="#FFF" d="M224 252.08c0 4.418-3.581 8.001-8 8.001-4.418 0-8-3.583-8-8 0-4.42 3.582-8.005 8-8.005 4.419 0 8 3.584 8 8.005" transform="translate(-530 -1981) translate(264 1779) translate(316 202)"/>
                    <path fill="#D99136" d="M221.92 398.625L218 308.597c13.99 48.927 28.442 76.91 118.5 81.556l-114.58 8.472" transform="translate(-530 -1981) translate(264 1779) translate(316 202)"/>
                    <path fill="#000" d="M346.892 283.589L341.5 229.295 343.608 229.072 349 283.369 346.892 283.589M169.766 279.087L169 278.031 181.734 268.584 182.5 269.643 169.766 279.087M168.775 267.084L168 266.053 180.725 256.08 181.5 257.111 168.775 267.084M166.472 258.581L165.5 257.682 178.028 245.077 179 245.976 166.472 258.581M157.73 253.58l-1.23-.475c4.907-12.097 11.44-19.46 11.505-19.532l.995.852c-.064.072-6.453 7.28-11.27 19.154M171.403 292.592c-2.064 0-3.858-.623-5.343-1.853-3.553-2.946-4.04-8.315-4.06-8.54l1.328-.11c.004.048.465 5.05 3.589 7.634 1.456 1.204 3.289 1.707 5.45 1.49l.133 1.32c-.374.04-.74.059-1.097.059" transform="translate(-530 -1981) translate(264 1779) translate(316 202)"/>
                    <path fill="#96B1CC" d="M544.875 292.143l-20.188 88.62c-.514 2.258-2.523 3.857-4.842 3.857H406.969c-3.188 0-5.552-2.952-4.843-6.056l20.184-88.616c.515-2.259 2.524-3.858 4.846-3.858H540.03c3.188 0 5.552 2.953 4.846 6.053" transform="translate(-530 -1981) translate(264 1779) translate(316 202)"/>
                    <path fill="#96B1CC" d="M328.5 385.121L417 385.121 417 375.618 328.5 375.618z" transform="translate(-530 -1981) translate(264 1779) translate(316 202)"/>
                    <path fill="#BAD0F7" d="M551.375 292.176l-20.187 89.069c-.515 2.268-2.524 3.876-4.843 3.876H413.471c-3.188 0-5.552-2.97-4.846-6.087l20.187-89.065c.515-2.268 2.524-3.88 4.843-3.88h112.874c3.188 0 5.552 2.97 4.846 6.087" transform="translate(-530 -1981) translate(264 1779) translate(316 202)"/>
                    <path fill="#FFF" d="M476.8 334.864c-1.096 4.765.904 9.293 4.469 10.114 3.56.825 7.338-2.37 8.431-7.132 1.096-4.764-.907-9.292-4.468-10.114-3.561-.825-7.34 2.371-8.432 7.132" transform="translate(-530 -1981) translate(264 1779) translate(316 202)"/>
                    <g transform="translate(-530 -1981) translate(264 1779) translate(316 202)">
                        <use fill="#000" filter="url(#mywhsh0zja)" xlink:href="#2tzuodeiwb"/>
                        <use fill="#FFF" xlink:href="#2tzuodeiwb"/>
                    </g>
                    <path fill="#AA7983" d="M434.22 146.546h-30.33c-4.808-7.595-4.905-18.095-4.889-19.803 6.553 3.49 14.067 5.474 22.06 5.474 8.146 0 15.799-2.06 22.439-5.677-2.817 8.097-6.395 15.055-9.28 20.006" transform="translate(-530 -1981) translate(264 1779) translate(316 202)"/>
                    <path fill="#C2CDF8" d="M399.204 126.54C385.082 118.81 375.5 103.8 375.5 86.554c0-25.152 20.37-45.541 45.498-45.541 25.13 0 45.502 20.39 45.502 45.541 0 17.095-9.413 31.991-23.331 39.78l.325-.981c1.046-3.193-.105-6.692-2.827-8.657-3.727-2.69-9.06-5.96-12.99-5.96-1.948 0-3.548.803-4.434 2.878 0 0 .3-2.784.57-6.735 9.987-1.372 17.686-9.949 17.686-20.325 0-11.331-9.178-20.517-20.5-20.517-11.32 0-20.498 9.186-20.498 20.517 0 8.416 5.062 15.649 12.308 18.813l-3.114 16.994s-6.207-19.03-13.14-19.03c-.424 0-.851.072-1.278.223l3.93 22.743s0 .084-.003.243" transform="translate(-530 -1981) translate(264 1779) translate(316 202)"/>
                    <path fill="#957DA8" d="M421.169 132.041c-7.88 0-15.289-2.03-21.75-5.602.003-.16.003-.245.003-.245l-3.922-22.937c.426-.153.853-.225 1.276-.225 6.919 0 13.112 19.192 13.112 19.192l3.109-17.139c2.503 1.106 5.268 1.718 8.172 1.718.954 0 1.89-.065 2.809-.193-.27 3.985-.57 6.792-.57 6.792.885-2.092 2.482-2.901 4.426-2.901 3.922 0 9.244 3.297 12.963 6.01 2.717 1.982 3.865 5.51 2.822 8.73l-.325.99c-6.547 3.701-14.093 5.81-22.125 5.81" transform="translate(-530 -1981) translate(264 1779) translate(316 202)"/>
                    <path fill="#A5B4F5" d="M423.813 106.533c.657-9.701 1.12-26.415-3.494-26.415-.312 0-.647.077-1.01.238 0 0-.074-.024-.201-.024-.816 0-3.851.982-4.607 15.396l-1.692 9.287c-7.247-3.178-12.309-10.44-12.309-18.892 0-11.378 9.178-20.602 20.498-20.602 11.324 0 20.502 9.224 20.502 20.602 0 10.42-7.699 19.032-17.687 20.41" transform="translate(-530 -1981) translate(264 1779) translate(316 202)"/>
                    <path fill="#8880C0" d="M421.25 107.034c-2.932 0-5.723-.608-8.25-1.705l1.705-9.252c.761-14.36 3.819-15.339 4.64-15.339.13 0 .203.025.203.025.366-.161.703-.238 1.018-.238 4.647 0 4.181 16.652 3.52 26.317-.928.126-1.872.192-2.836.192" transform="translate(-530 -1981) translate(264 1779) translate(316 202)"/>
                    <path fill="#BAD0F7" d="M485 45.014L510 45.014 510 40.513 485 40.513zM484.5 56.018L529 56.018 529 51.516 484.5 51.516zM484.5 66.021L529 66.021 529 61.519 484.5 61.519zM484.5 77.024L529 77.024 529 72.523 484.5 72.523z" transform="translate(-530 -1981) translate(264 1779) translate(316 202)"/>
                    <g transform="translate(-530 -1981) translate(264 1779) translate(316 202)">
                        <use fill="#000" filter="url(#uxg5n79ykc)" xlink:href="#4bu2r37v6d"/>
                        <use fill="#FFF" xlink:href="#4bu2r37v6d"/>
                    </g>
                    <path fill="#BAD0F7" d="M9.25 53.017h20.5c1.242 0 2.25-1.008 2.25-2.251 0-1.243-1.008-2.25-2.25-2.25H9.25c-1.242 0-2.25 1.007-2.25 2.25s1.008 2.25 2.25 2.25zM9.25 63.02h40c1.242 0 2.25-1.008 2.25-2.251 0-1.243-1.008-2.25-2.25-2.25h-40c-1.242 0-2.25 1.007-2.25 2.25s1.008 2.25 2.25 2.25z" transform="translate(-530 -1981) translate(264 1779) translate(316 202)"/>
                    <path fill="#96B1CC" d="M7 140.544L188 140.544 188 139.044 7 139.044zM7 109.034L188 109.034 188 107.534 7 107.534zM7 75.524L188 75.524 188 74.023 7 74.023z" opacity=".1" transform="translate(-530 -1981) translate(264 1779) translate(316 202)"/>
                    <path fill="#BAD0F7" d="M163 172.554L184.5 172.554 184.5 64.52 163 64.52zM137.5 172.054L159 172.054 159 82.026 137.5 82.026zM112.5 172.554L134 172.554 134 85.527 112.5 85.527zM87 172.054L108.5 172.054 108.5 106.033 87 106.033zM62 172.554L83.5 172.554 83.5 138.043 62 138.043zM36.5 171.554L58 171.554 58 130.041 36.5 130.041zM11 172.054L32.5 172.054 32.5 155.049 11 155.049z" transform="translate(-530 -1981) translate(264 1779) translate(316 202)"/>
                    <path fill="#FFF" d="M7 172.554L188 172.554 188 171.554 7 171.554z" transform="translate(-530 -1981) translate(264 1779) translate(316 202)"/>
                    <path fill="#6F85EE" d="M22.659 165.552L21.5 162.238 46.874 153.307 72.076 157.591 97.038 123.326 122.471 128.165 147.525 96.533 173.41 88.028 174.5 91.365 149.614 99.543 123.897 132.011 98.559 127.191 73.626 161.417 47.181 156.921 22.659 165.552" transform="translate(-530 -1981) translate(264 1779) translate(316 202)"/>
                    <path fill="#C92041" d="M177 89.528c0 1.381-1.12 2.5-2.5 2.5s-2.5-1.119-2.5-2.5 1.12-2.5 2.5-2.5 2.5 1.119 2.5 2.5M151 98.53c0 1.382-1.12 2.502-2.5 2.502s-2.5-1.12-2.5-2.501c0-1.381 1.12-2.5 2.5-2.5s2.5 1.119 2.5 2.5M126 129.54c0 1.382-1.12 2.501-2.5 2.501-1.381 0-2.5-1.12-2.5-2.5 0-1.382 1.119-2.501 2.5-2.501 1.38 0 2.5 1.12 2.5 2.5M100 125.54c0 1.38-1.12 2.5-2.5 2.5s-2.5-1.12-2.5-2.5c0-1.382 1.12-2.501 2.5-2.501s2.5 1.12 2.5 2.5M75 159.55c0 1.381-1.12 2.5-2.5 2.5s-2.5-1.119-2.5-2.5 1.12-2.5 2.5-2.5 2.5 1.119 2.5 2.5M50 155.049c0 1.38-1.12 2.5-2.5 2.5s-2.5-1.12-2.5-2.5c0-1.381 1.12-2.501 2.5-2.501s2.5 1.12 2.5 2.5M24.5 163.551c0 1.381-1.119 2.501-2.5 2.501-1.38 0-2.5-1.12-2.5-2.5 0-1.382 1.12-2.502 2.5-2.502 1.381 0 2.5 1.12 2.5 2.501" transform="translate(-530 -1981) translate(264 1779) translate(316 202)"/>
                    <path fill="#D6E3F8" d="M27 458.644L608.5 458.644 608.5 399.125 27 399.125z" transform="translate(-530 -1981) translate(264 1779) translate(316 202)"/>
                    <path fill="#96B1CC" d="M27 423.133L608.5 423.133 608.5 399.125 27 399.125z" transform="translate(-530 -1981) translate(264 1779) translate(316 202)"/>
                    <path fill="#D6E3F8" d="M3.5 407.128L632 407.128 632 385.121 3.5 385.121z" transform="translate(-530 -1981) translate(264 1779) translate(316 202)"/>
                    <path fill="#00CAB4" d="M99.987 276.447c-.082 1.73-.582 3.783-1.65 6.201-2.025 4.589-8.984 17.946-8.984 17.946l-4.833-.433-.249-1.294c-.715-3.722-2.78-14.434-3.56-18.494-1.117-5.809 2.143-13.545 10.893-12.73 3.266.306 8.694 2.361 8.383 8.804" transform="translate(-530 -1981) translate(264 1779) translate(316 202)"/>
                    <path fill="#00CAB4" d="M81.85 297.655l-4.094 1.939-.517-.548-6.22-6.576c-.533-.564-.988-1.193-1.342-1.883-.862-1.672-1.962-4.743-.36-7.509.727-1.253 1.902-2.177 3.243-2.728 1.366-.564 3.458-1.134 5.327-.448 1.826.67 3.44 2.537 3.964 6.779.336 2.722 0 10.974 0 10.974" transform="translate(-530 -1981) translate(264 1779) translate(316 202)"/>
                    <path fill="#FFF" d="M83.275 276.587L83 274.159 84.225 274.086 84.5 276.51 83.275 276.587M91.618 279.087L90.5 278.964 90.882 277.087 92 277.21 91.618 279.087M83.5 284.589L84.5 284.589 84.5 282.589 83.5 282.589zM91.879 287.09L91 286.819 91.621 285.089 92.5 285.361 91.879 287.09M85 293.592L86 293.592 86 291.591 85 291.591zM89.5 271.085L90.5 271.085 90.5 269.084 89.5 269.084zM76.552 286.09L76 284.326 76.948 284.089 77.5 285.856 76.552 286.09M72.709 291.091L71.5 289.612 72.291 289.091 73.5 290.57 72.709 291.091M76.742 294.592L76 292.512 76.758 292.091 77.5 294.172 76.742 294.592M70.853 285.089L70 283.546 70.647 283.089 71.5 284.632 70.853 285.089" transform="translate(-530 -1981) translate(264 1779) translate(316 202)"/>
                    <path fill="#00AA91" d="M99.5 276.587c-.081 1.72-.574 3.76-1.628 6.165-1.997 4.562-8.86 17.842-8.86 17.842l-4.766-.43s-.093-.48-.246-1.287l1.456-.931c9.845-9.672 13.22-16.674 14.044-21.36M81.359 298.124l-3.87 1.97-.489-.557c1.21-2.19 4.765-13.666.613-19.45 1.725.682 3.25 2.579 3.746 6.888.318 2.766 0 11.149 0 11.149" transform="translate(-530 -1981) translate(264 1779) translate(316 202)"/>
                    <path fill="#00CAB4" d="M97.5 309.847c0 7.595-6.157 13.754-13.75 13.754-4.605 0-8.682-2.262-11.177-5.74-1.62-2.259-2.573-5.02-2.573-8.014 0-7.595 6.157-13.754 13.75-13.754 2.477 0 4.801.654 6.81 1.805 4.144 2.367 6.94 6.832 6.94 11.949" transform="translate(-530 -1981) translate(264 1779) translate(316 202)"/>
                    <path fill="#FFF" d="M75.122 303.595L74.5 301.866 75.378 301.594 76 303.324 75.122 303.595M80.969 306.096L80.5 303.765 81.531 303.595 82 305.926 80.969 306.096M89 305.096L90 305.096 90 303.095 89 303.095z" transform="translate(-530 -1981) translate(264 1779) translate(316 202)"/>
                    <path fill="#00AA91" d="M97.5 309.684c0 7.685-6.175 13.917-13.79 13.917-4.62 0-8.708-2.29-11.21-5.807 21.933-4.75 19.84-15.828 18.04-20.2 4.156 2.395 6.96 6.913 6.96 12.09" transform="translate(-530 -1981) translate(264 1779) translate(316 202)"/>
                    <path fill="#ACC5EA" d="M102.969 312.914l-5.157 28.863c-.345 1.926-2.026 3.331-3.989 3.331h-19.65c-1.96 0-3.64-1.405-3.984-3.33l-5.157-28.864c-.217-1.206.712-2.317 1.94-2.317h34.053c1.228 0 2.16 1.11 1.944 2.317" transform="translate(-530 -1981) translate(264 1779) translate(316 202)"/>
                    <path fill="#96B1CC" d="M102.5 317.1l-4.4 24.662c-.345 1.935-2.03 3.346-4 3.346H86l16.5-28.009" transform="translate(-530 -1981) translate(264 1779) translate(316 202)"/>
                    <path fill="#FFF" d="M96.381 276.086L95.5 275.814 96.119 274.086 97 274.358 96.381 276.086M84.5 299.594L85.5 299.594 85.5 297.593 84.5 297.593z" transform="translate(-530 -1981) translate(264 1779) translate(316 202)"/>
                    <path fill="#000" d="M68.5 311.097L102 311.097 102 309.597 68.5 309.597z" transform="translate(-530 -1981) translate(264 1779) translate(316 202)"/>
                    <path fill="#C92041" d="M137.714 353.04v-4.598H141v-3.834H61.842c-5.712 0-10.342 4.591-10.342 10.253s4.63 10.253 10.342 10.253H141v-3.834h-3.286v-8.24" transform="translate(-530 -1981) translate(264 1779) translate(316 202)"/>
                    <path fill="#00CAB4" d="M127.214 373.046v-4.598h3.286v-3.834H51.342c-5.712 0-10.342 4.591-10.342 10.253s4.63 10.254 10.342 10.254H130.5v-3.834h-3.286v-8.241" transform="translate(-530 -1981) translate(264 1779) translate(316 202)"/>
                    <path fill="#FFF" d="M128 368.115v13.505H81.079c-3.634 0-6.579-3.024-6.579-6.753 0-1.09.251-2.12.7-3.033 1.082-2.205 3.307-3.719 5.879-3.719H128" transform="translate(-530 -1981) translate(264 1779) translate(316 202)"/>
                    <path fill="#D9D9D9" d="M128 374.617l-10.973-.59v-5.912H128v6.502m-12.65-.68l-2.57-.138 1.139-1.39 1.431 1.528m-4.15-.222L75 371.768c1.086-2.167 3.32-3.653 5.9-3.653h30.3v5.6" transform="translate(-530 -1981) translate(264 1779) translate(316 202)"/>
                    <path fill="#FFF" d="M138.5 348.109v13.504H91.578c-3.633 0-6.578-3.023-6.578-6.752 0-1.09.251-2.12.7-3.033 1.082-2.206 3.307-3.719 5.878-3.719H138.5" transform="translate(-530 -1981) translate(264 1779) translate(316 202)"/>
                    <path fill="#000" d="M104.5 348.609L110.803 348.609 110.803 356.885 117.5 356.885 117.5 376.118 114.348 372.849 111.591 376.118 111.591 358.424 104.5 358.424 104.5 348.609" transform="translate(-530 -1981) translate(264 1779) translate(316 202)"/>
                    <path fill="#D9D9D9" d="M138.5 354.611l-28.066-1.509v-4.993H138.5v6.502m-34.28-1.844l-18.72-1.006c1.086-2.166 3.32-3.652 5.9-3.652h12.82v4.658" transform="translate(-530 -1981) translate(264 1779) translate(316 202)"/>
                    <path fill="#000" d="M110.5 353.111L104.5 352.775 104.5 348.109 110.5 348.109 110.5 353.111" transform="translate(-530 -1981) translate(264 1779) translate(316 202)"/>
                </g>
            </g>
        </g>
    </g>
</svg>
