<svg xmlns="http://www.w3.org/2000/svg" xmlns:xlink="http://www.w3.org/1999/xlink" width="102" height="103" viewBox="0 0 102 103">
    <defs>
        <linearGradient id="v6i8ec8x3c" x1="50%" x2="50%" y1="0%" y2="100%">
            <stop offset="0%" stop-color="#FFF"/>
            <stop offset="100%" stop-color="#039CFC" stop-opacity=".5"/>
        </linearGradient>
        <filter id="4ljomh2j1a" width="225%" height="225%" x="-62.5%" y="-31.2%" filterUnits="objectBoundingBox">
            <feOffset dy="20" in="SourceAlpha" result="shadowOffsetOuter1"/>
            <feGaussianBlur in="shadowOffsetOuter1" result="shadowBlurOuter1" stdDeviation="10"/>
            <feComposite in="shadowBlurOuter1" in2="SourceAlpha" operator="out" result="shadowBlurOuter1"/>
            <feColorMatrix in="shadowBlurOuter1" values="0 0 0 0 0 0 0 0 0 0 0 0 0 0 0 0 0 0 0.15 0"/>
        </filter>
        <path id="0hcwyvpyrb" d="M231.035 355.625c.867-.884 1.182-2.204.813-3.41-.37-1.206-1.36-2.09-2.558-2.28l-16.573-2.536c-1.044-.147-1.948-.832-2.407-1.824l-7.449-15.704c-.54-1.146-1.657-1.871-2.878-1.871-1.222 0-2.338.725-2.879 1.87l-7.414 15.705c-.459.992-1.363 1.677-2.407 1.824l-16.573 2.535c-1.197.192-2.188 1.075-2.558 2.28-.37 1.207-.054 2.527.813 3.41l12.002 12.24c.753.767 1.098 1.87.925 2.954l-2.844 17.273c-.208 1.255.285 2.525 1.271 3.273.986.748 2.293.844 3.37.247l14.846-8.153c.934-.509 2.048-.509 2.983 0l14.828 8.153c1.071.556 2.35.44 3.312-.302.963-.742 1.448-1.984 1.259-3.218l-2.844-17.273c-.173-1.083.172-2.187.925-2.954l12.037-12.24z"/>
    </defs>
    <g fill="none" fill-rule="evenodd">
        <g fill-rule="nonzero">
            <g transform="translate(-413 -3008) translate(264 2680)">
                <use fill="#000" filter="url(#4ljomh2j1a)" xlink:href="#0hcwyvpyrb"/>
                <use fill="#FFF" xlink:href="#0hcwyvpyrb"/>
                <path fill="url(#v6i8ec8x3c)" fill-rule="evenodd" stroke="#FFF" stroke-linejoin="square" stroke-opacity=".2" d="M199.983 328.5c.512 0 1.003.153 1.422.425.424.276.774.673 1.004 1.16h0l7.447 15.7c.532 1.15 1.583 1.939 2.786 2.108h0l16.57 2.535c.502.08.962.307 1.334.64.378.336.666.78.824 1.293.158.517.17 1.058.049 1.564-.12.504-.371.973-.74 1.35h0l-12.038 12.239c-.862.878-1.26 2.141-1.061 3.386h0l2.842 17.267c.082.528.019 1.058-.168 1.536-.185.473-.492.895-.901 1.21-.404.31-.874.491-1.356.535-.479.044-.968-.047-1.416-.278h0l-14.824-8.15c-1.085-.592-2.377-.592-3.463 0h0l-14.847 8.154c-.451.25-.95.355-1.44.32-.491-.037-.972-.215-1.386-.529-.419-.317-.732-.746-.919-1.228-.189-.486-.25-1.027-.16-1.565h0l2.844-17.275c.198-1.242-.2-2.505-1.062-3.383h0l-12.002-12.24c-.37-.376-.62-.845-.74-1.35-.121-.505-.11-1.046.048-1.563.158-.512.446-.957.824-1.294.372-.332.832-.559 1.331-.639h0l16.567-2.534c1.21-.17 2.26-.96 2.79-2.106h0l7.414-15.704c.23-.486.58-.883 1.004-1.159.42-.272.91-.425 1.423-.425z"/>
            </g>
        </g>
    </g>
</svg>
